<svg width="88" height="88" viewBox="0 0 88 88" fill="none" xmlns="http://www.w3.org/2000/svg">
<g filter="url(#filter0_d_2_1818)">
<rect x="14" y="10" width="60" height="60" rx="30" fill="url(#paint0_linear_2_1818)"/>
</g>
<g clip-path="url(#clip0_2_1818)">
<path d="M56.92 35.1572C53.1965 37.1357 49.4906 39.1789 45.87 41.3514C44.5826 40.0746 43.5155 39.0584 43.2405 37.8501C43.2556 37.7779 43.1928 37.0322 43.1966 36.9267C43.211 36.5476 43.2299 36.1685 43.2701 35.7906C43.3862 34.7266 43.5783 33.6696 43.7515 32.6125C44.0327 30.8895 43.2996 29.1752 41.4861 28.6894C40.8415 28.5168 40.1077 28.5821 39.448 28.8363C39.2069 28.7045 38.9301 28.6128 38.6144 28.5777C35.9485 28.282 33.3317 27.6951 30.8215 26.746C28.3151 25.7988 27.243 29.808 29.7192 30.7445C32.1673 31.6703 34.7013 32.2102 37.2805 32.5592C37.2717 32.6081 37.2636 32.6571 37.2542 32.7061C34.2418 33.2842 31.2879 34.1008 28.3797 35.1026C25.867 35.9676 26.9467 39.9748 29.482 39.1011C31.8735 38.2769 34.2946 37.5783 36.7539 37.0341C36.7514 37.9392 36.843 38.8312 37.0859 39.6886C37.6634 41.7211 38.9257 43.3581 40.3437 44.8634C39.4787 45.4509 38.6087 46.0278 37.6948 46.5255C36.0716 47.41 34.265 48.5869 33.6405 50.4349C32.4811 53.8659 36.0596 55.2255 37.8768 57.3201C39.6313 59.3438 42.552 56.398 40.8088 54.3875C39.937 53.3825 38.7519 52.7643 37.8279 51.8246C37.3835 51.3708 37.4418 51.7806 37.9277 51.3394C38.6332 50.6972 39.4517 50.3206 40.2696 49.8436C42.8376 48.3471 45.2473 46.5626 47.8083 45.0404C51.4923 42.8535 55.2278 40.7494 59.0115 38.737C61.3742 37.4816 59.2802 33.9025 56.92 35.1572Z" fill="white"/>
<path d="M45.6536 29.5068C47.4504 29.5068 48.9069 28.0502 48.9069 26.2534C48.9069 24.4566 47.4504 23 45.6536 23C43.8568 23 42.4002 24.4566 42.4002 26.2534C42.4002 28.0502 43.8568 29.5068 45.6536 29.5068Z" fill="white"/>
</g>
<defs>
<filter id="filter0_d_2_1818" x="0" y="0" width="88" height="88" filterUnits="userSpaceOnUse" color-interpolation-filters="sRGB">
<feFlood flood-opacity="0" result="BackgroundImageFix"/>
<feColorMatrix in="SourceAlpha" type="matrix" values="0 0 0 0 0 0 0 0 0 0 0 0 0 0 0 0 0 0 127 0" result="hardAlpha"/>
<feOffset dy="4"/>
<feGaussianBlur stdDeviation="7"/>
<feComposite in2="hardAlpha" operator="out"/>
<feColorMatrix type="matrix" values="0 0 0 0 0 0 0 0 0 0 0 0 0 0 0 0 0 0 0.09 0"/>
<feBlend mode="normal" in2="BackgroundImageFix" result="effect1_dropShadow_2_1818"/>
<feBlend mode="normal" in="SourceGraphic" in2="effect1_dropShadow_2_1818" result="shape"/>
</filter>
<linearGradient id="paint0_linear_2_1818" x1="27" y1="66.5" x2="74" y2="19.5" gradientUnits="userSpaceOnUse">
<stop stop-color="#F8A422"/>
<stop offset="1" stop-color="#FEDEAC"/>
</linearGradient>
<clipPath id="clip0_2_1818">
<rect width="35" height="35" fill="white" transform="translate(26 23)"/>
</clipPath>
</defs>
</svg>
