<svg width="16" height="16" viewBox="0 0 16 16" fill="none" xmlns="http://www.w3.org/2000/svg">
<path d="M1.72003 12.6733L1.7067 12.6866C1.5267 12.2933 1.41337 11.8466 1.3667 11.3533C1.41337 11.8399 1.54003 12.2799 1.72003 12.6733Z" fill="white"/>
<path d="M6 6.92016C6.87629 6.92016 7.58666 6.20978 7.58666 5.33349C7.58666 4.4572 6.87629 3.74683 6 3.74683C5.1237 3.74683 4.41333 4.4572 4.41333 5.33349C4.41333 6.20978 5.1237 6.92016 6 6.92016Z" fill="white"/>
<path d="M10.7934 1.33325H5.20671C2.78004 1.33325 1.33337 2.77992 1.33337 5.20658V10.7933C1.33337 11.5199 1.46004 12.1532 1.70671 12.6866C2.28004 13.9532 3.50671 14.6666 5.20671 14.6666H10.7934C13.22 14.6666 14.6667 13.2199 14.6667 10.7933V9.26658V5.20658C14.6667 2.77992 13.22 1.33325 10.7934 1.33325ZM13.58 8.33325C13.06 7.88658 12.22 7.88658 11.7 8.33325L8.92671 10.7132C8.40671 11.1599 7.56671 11.1599 7.04671 10.7132L6.82004 10.5266C6.34671 10.1132 5.59337 10.0732 5.06004 10.4332L2.56671 12.1066C2.42004 11.7332 2.33337 11.2999 2.33337 10.7933V5.20658C2.33337 3.32658 3.32671 2.33325 5.20671 2.33325H10.7934C12.6734 2.33325 13.6667 3.32658 13.6667 5.20658V8.40658L13.58 8.33325Z" fill="white"/>
</svg>
