<svg width="38" height="40" viewBox="0 0 38 40" fill="none" xmlns="http://www.w3.org/2000/svg">
<path d="M34.3371 13.8941C30.0816 16.1553 25.8462 18.4903 21.7084 20.9732C20.2371 19.514 19.0176 18.3526 18.7034 16.9717C18.7206 16.8892 18.6488 16.0369 18.6531 15.9164C18.6696 15.4831 18.6912 15.0498 18.7371 14.618C18.8698 13.402 19.0893 12.194 19.2873 10.9859C19.6087 9.01672 18.7708 7.05757 16.6983 6.50232C15.9616 6.30505 15.1229 6.37965 14.369 6.67019C14.0935 6.51954 13.7772 6.4148 13.4163 6.37463C10.3696 6.03675 7.37891 5.366 4.51013 4.28134C1.64566 3.19882 0.420389 7.78068 3.25043 8.851C6.04818 9.90913 8.94421 10.5261 11.8919 10.9249C11.8819 10.9809 11.8725 11.0368 11.8618 11.0928C8.4191 11.7535 5.04314 12.6868 1.71955 13.8317C-1.15209 14.8203 0.0817883 19.4 2.97926 18.4014C5.71245 17.4595 8.47936 16.661 11.29 16.0391C11.2872 17.0735 11.3919 18.0929 11.6695 19.0728C12.3295 21.3957 13.7721 23.2666 15.3927 24.9869C14.4041 25.6583 13.4099 26.3176 12.3654 26.8865C10.5102 27.8973 8.44564 29.2423 7.73185 31.3543C6.40687 35.2754 10.4966 36.8293 12.5734 39.2231C14.5785 41.5359 17.9164 38.1693 15.9243 35.8716C14.9278 34.7231 13.5734 34.0164 12.5174 32.9425C12.0095 32.4239 12.0763 32.8923 12.6315 32.388C13.4378 31.6541 14.3733 31.2237 15.308 30.6785C18.2428 28.9683 20.9968 26.9288 23.9237 25.1892C28.1339 22.6898 32.403 20.2852 36.7274 17.9853C39.4275 16.5506 37.0344 12.4601 34.3371 13.8941Z" fill="white"/>
<path d="M21.4609 7.43629C23.5144 7.43629 25.1791 5.77162 25.1791 3.71814C25.1791 1.66467 23.5144 0 21.4609 0C19.4075 0 17.7428 1.66467 17.7428 3.71814C17.7428 5.77162 19.4075 7.43629 21.4609 7.43629Z" fill="white"/>
</svg>
