<svg width="39" height="20" viewBox="0 0 39 20" fill="none" xmlns="http://www.w3.org/2000/svg">
<path d="M35.1481 7.16499C36.8612 7.16499 38.25 5.77622 38.25 4.06309C38.25 2.34995 36.8612 0.961182 35.1481 0.961182C33.435 0.961182 32.0462 2.34995 32.0462 4.06309C32.0462 5.77622 33.435 7.16499 35.1481 7.16499Z" fill="white"/>
<path d="M7.86916 16.5454C11.0528 14.9887 14.2363 13.4336 17.4207 11.8769C18.4598 13.4244 20.3211 13.5886 21.8762 12.7892C23.7696 11.8166 25.6652 10.8424 27.5571 9.86978C27.6365 11.6486 27.7128 13.429 27.7899 15.2078C27.8884 17.4402 31.3491 17.2898 31.2506 15.0574C31.146 12.6556 31.043 10.2538 30.9376 7.85274C31.74 6.79917 31.7622 5.14859 31.0659 4.0706C30.0329 2.47575 28.148 2.30015 26.573 3.10788C23.8307 4.51722 21.0883 5.92579 18.3475 7.33435C18.0353 7.49468 17.7765 7.71608 17.5658 7.97489C13.708 9.86062 9.85108 11.7463 5.9926 13.6328C3.9893 14.6108 5.88342 17.515 7.86916 16.5454Z" fill="white"/>
<path d="M37.7644 17.0354H0.75V19.041H37.7644V17.0354Z" fill="white"/>
</svg>
