<svg width="35" height="35" viewBox="0 0 35 35" fill="none" xmlns="http://www.w3.org/2000/svg">
<path d="M32.1048 14.8539C33.7037 14.8539 34.9999 13.5578 34.9999 11.9588C34.9999 10.3599 33.7037 9.06372 32.1048 9.06372C30.5059 9.06372 29.2097 10.3599 29.2097 11.9588C29.2097 13.5578 30.5059 14.8539 32.1048 14.8539Z" fill="white"/>
<path d="M6.64448 23.6077C9.61584 22.1548 12.5872 20.7033 15.5593 19.2504C16.529 20.6947 18.2663 20.8479 19.7177 20.1019C21.4849 19.1941 23.2541 18.2849 25.0199 17.3771C25.094 19.0373 25.1652 20.699 25.2372 22.3593C25.3291 24.4428 28.5591 24.3024 28.4672 22.2189C28.3696 19.9772 28.2734 17.7355 28.1751 15.4945C28.9239 14.5112 28.9446 12.9707 28.2948 11.9645C27.3307 10.476 25.5714 10.3121 24.1014 11.066C21.5419 12.3814 18.9824 13.696 16.4243 15.0107C16.1329 15.1603 15.8913 15.367 15.6946 15.6085C12.0941 17.3685 8.49428 19.1286 4.89302 20.8893C3.02328 21.8021 4.79113 24.5126 6.64448 23.6077Z" fill="white"/>
<path d="M34.5468 24.0645H0V25.9363H34.5468V24.0645Z" fill="white"/>
</svg>
