<svg width="34" height="40" viewBox="0 0 34 40" fill="none" xmlns="http://www.w3.org/2000/svg">
<path d="M33.7752 16.2266C32.8933 12.4958 31.352 8.2404 28.501 5.556C28.4174 5.47652 28.331 5.40602 28.2432 5.34036C29.8536 3.75073 27.2991 1.2633 25.5505 2.81077C22.1563 5.81725 18.2044 8.02546 14.0692 9.84248C13.913 9.89086 13.761 9.9503 13.6131 10.0187C10.0799 9.87082 5.75269 9.11678 3.28876 6.58373C1.62448 4.87246 -0.987355 7.48913 0.67554 9.19764C3.31018 11.9076 7.39761 13.1054 11.2791 13.5387C11.2749 13.8947 11.3219 14.2534 11.4353 14.6065C12.951 19.3305 16.209 23.9508 21.045 25.6192C21.3622 25.7298 21.685 25.7796 22.005 25.7879C22.005 29.7067 22.005 33.6241 22.005 37.5415C22.005 40.8189 27.0883 40.8189 27.0883 37.5415C27.0883 32.5963 27.0883 27.6498 27.0883 22.7061C30.3671 21.4399 34.4919 19.251 33.7752 16.2266ZM23.9637 18.432C23.6996 18.2772 23.4197 18.1438 23.1218 18.0415C23.408 18.1984 23.3375 18.1632 22.9069 17.9358C22.683 17.8197 22.591 17.7824 22.5558 17.7747C22.5316 17.743 22.4556 17.6669 22.2524 17.4948C21.7921 17.1071 21.2399 16.5341 20.9399 16.1354C20.0297 14.9258 19.3627 13.6244 19.0247 12.5732C18.9301 12.2822 18.8063 12.0078 18.6619 11.7493C20.633 10.7576 22.5351 9.64896 24.3466 8.39868C24.4737 8.65786 24.6555 8.91082 24.9085 9.14857C26.7573 10.8903 27.7981 13.5546 28.4907 16.0683C27.1547 17.1589 25.612 17.8653 23.9637 18.432Z" fill="white"/>
<path d="M12.499 8.69736C14.9007 8.69736 16.8476 6.75039 16.8476 4.34868C16.8476 1.94697 14.9007 0 12.499 0C10.0972 0 8.15027 1.94697 8.15027 4.34868C8.15027 6.75039 10.0972 8.69736 12.499 8.69736Z" fill="white"/>
</svg>
